<svg id="Layer_1" data-name="Layer 1" xmlns="http://www.w3.org/2000/svg" viewBox="0 0 611.83 654.69"><defs><style>.cls-1{fill:#dae7f2;fill-rule:evenodd;}.cls-2{fill:#19385f;}.cls-3{fill:#181c3b;}.cls-4{fill:#252d3c;}.cls-5{fill:#c1282d;}.cls-6{fill:#670f0f;}.cls-7{fill:#2b9ed9;}.cls-8{fill:#bfb331;}.cls-9{fill:#3db54a;}.cls-10{fill:#2aaae2;}</style></defs><title>Unfetter_Shield_v3</title><path class="cls-1" d="M612.42,205.55l-.29,27.6-2.05,27.6-3.82,27.6L601,316.23l-7,27-8.81,27.3-10.57,27.3-12,26.42-14.09,25.25L533.75,473.6,517.9,496.5l-17.61,22-18.78,20.55-19.08,19.38-20.55,18.2-21.72,17-22.31,15.56-23.19,14.39-23.77,12.62L326.24,647.7l-18.79,7.51h-1.89l-18.79-7.51-24.66-11.45-23.77-12.62-23.19-14.39-22.31-15.56-21.72-17-20.55-18.2-19.08-19.38-18.78-20.55-17.61-22L79.25,473.6,64.57,449.52,50.48,424.27l-12-26.42-10.57-27.3-8.81-27.3-7-27L6.75,288.34l-3.82-27.6L.88,233.15l-.29-27.6,1.17-27.3L4.4,151.53l4.4-27,4.42-21.19,5.2-4.19L41.37,82.77,65.52,66.88,91,53l26.46-12.51L144,29.7l26.42-9,27.42-7.28,27.24-5.8,27.36-4L280,1.31,305.74.56v0l.76,0,.76,0v0L333,1.31,360.53,3.6l27.36,4,27.24,5.8,27.42,7.28,26.42,9,26.58,10.76L522,53l25.47,13.92,24.15,15.88,22.94,16.38,5.2,4.19,4.42,21.19,4.4,27,2.64,26.72Zm-484.47,144a1.17,1.17,0,0,1-.22.68v0l0,0a14.69,14.69,0,0,1-1.61,1.91,12.86,12.86,0,0,1-11.23,3.45L91.7,378.12A7.68,7.68,0,0,1,81,378a7.58,7.58,0,0,1,.16-10.68l23.17-22.51a13,13,0,0,1,3.79-11.13,13,13,0,0,1,18.24.28c.29.32.59.65.85,1v0l0,0c.26.33.5.67.7.94a1.29,1.29,0,0,1-.35,1.76,1.11,1.11,0,0,1-.72.21l-8.14-.12-3.07,5.14,2.91,5.25,8.14.12A1.24,1.24,0,0,1,127.95,349.54Zm-38.27,20a4.1,4.1,0,1,0-.12,5.79A4.09,4.09,0,0,0,89.68,369.54ZM435.53,233.95l-1.12-11.36-1.85-11.37-2-9.39-2.66-2.14-9.65-6.89-10.11-6.65-10.84-5.93L386.18,175,375,170.43l-11.06-3.76-11.65-3.1-11.49-2.44-11.55-1.7-11.58-1-9.33-.27v-.11l-1.78.05-1.86,0v.09l-9.41.28-11.6,1-11.54,1.71-11.47,2.44-11.48,3-11.23,3.82L226.74,175l-11.15,5.28-10.66,5.82-10.26,6.74L185,199.74l-2.59,2.09-2,9.46-1.85,11.4-1.11,11.26L177,245.46l.13,11.64.87,11.64,1.61,11.62L181.8,292l3,11.48L188.51,315,193,326.54l5,11.06,6,10.73,6.19,10.15L216.8,368l7.5,9.37,7.9,8.64,8,8.11,8.74,7.75,9.16,7.18,9.4,6.56,9.7,6L287.29,427l10.39,4.82,8.13,3.25h1.37l8.21-3.28L325.78,427l9.95-5.28,9.86-6.11L355,409l9.16-7.18,8.6-7.62,8.1-8.22,7.93-8.68,7.37-9.21,6.74-9.74,6.17-10.12,5.9-10.57,5.13-11.25,4.45-11.51,3.71-11.51,2.95-11.3,2.25-11.84L435,268.65,435.9,257l.12-11.63Zm-108.82,318c-2.17-1.47-7.24-2.5-7.24-2.5l9-7.37-9-9-.06.17c-.74,7.66-3.74,20.59-13.75,20.59-10.4,0-12.75-13.08-13.83-20.75h0L283.07,542l9.17,7.4s-5,1-7.17,2.52c-3.07,2.08-8.75,13.73-8.74,17.51a7.49,7.49,0,0,0,7.32,6.79c.86,0,43.93,0,44.81,0a7.25,7.25,0,0,0,7.05-6.86C335.51,565.55,329.77,554,326.71,551.94Zm-45.23-28c0-.49,11.08-1.7,11.08-1.7s6.78-13,9.46-13.59c2-.42,3.82,1.17,4.36,1.11.82-.09,2.6-1.79,4.31-.6s7.27,13.25,7.27,13.25,11.42.85,11.08,1.53-17.73,11.22-23.18,11.56S281.47,524.4,281.47,523.91ZM509.55,334.85c.41-3-1.27-8.05-5.53-7.95-2.8.07-4,1.08-5-.12-1.24-1.53-2.78-2.91-3.39-2.63s-.81,4.72-.81,4.72-6.75,2.15-7.42,5.78c-.35,1.91-7.93,4.48-7.93,4.48s.59,5.91,1.35,6.1a6.88,6.88,0,0,0,1.84.1l-.65,1.4,2.47.06s1.69-3.09,3-2.77a9.09,9.09,0,0,0,5.38-.66s-19.46,13.9-6.3,27.07c.38,2.68.57,4,.57,4s-4.2,1.79-4.58,3.81a6,6,0,0,0,1.14,4.06h-2.75v3.77H509.2v-3.77h-3.09s1.63-2.08,1-4.07c-.72-2.28-4.37-3.74-4.37-3.74l.15-4.56s3.12-.65,4.3-1.65c-2.29-.6-2.86-10.89-2.65-14.89C504.78,349,509.08,338.33,509.55,334.85Z" transform="translate(-0.59 -0.51)"/><path class="cls-2" d="M431.95,234.12l.49,11.3-.12,11.45-.85,11.46-1.58,11.48-2.2,11.62-2.91,11.17-3.66,11.35-4.39,11.35-5,11-5.84,10.46-6.09,10-6.6,9.54-7.27,9.1L378.08,384,370.13,392l-8.49,7.53-9,7.08-9.27,6.47-9.66,6-9.83,5.22-10.24,4.76-7.6,3h-.21l-7.52-3L288,424.35l-9.9-5.26-9.59-5.95-9.27-6.46-9-7.07L241.7,392l-7.91-8-7.8-8.52-7.34-9.17-6.56-9.47-6.11-10-5.87-10.51-5-10.92L190.75,314l-3.66-11.34-2.94-11.25L182,279.88l-1.59-11.45L179.52,257l-.12-11.47.49-11.34L181,223.08l1.83-11.24,1.74-8.34,1.69-1.36,9.55-6.82,10.06-6.61,10.53-5.75,11-5.2,11-4.47,11-3.74,11.35-3,11.3-2.41,11.36-1.68,11.42-1,10.79-.32h.23l11,.32,11.41.94,11.36,1.67L351,166.49l11.43,3,10.93,3.71,11,4.47,11,5.2L406,188.7l10,6.58,9.53,6.8,1.76,1.42,1.73,8.28L430.84,223ZM229.79,292.76c0,3.72-2.15,5.72-5.59,5.72s-5.51-2-5.51-5.72V274.59h-5.59v18.17a9.22,9.22,0,0,0,3.07,7.34,11.85,11.85,0,0,0,8,2.65,12,12,0,0,0,8.07-2.65,9.12,9.12,0,0,0,3.11-7.34V274.59h-5.59Zm10.55-17.85v26.56h6.25V283.33l.09,0,9.2,16.88,2-6.63-11.32-18.65Zm27.57,12.82h13.34v-1.07h-13Zm21.24,13.65h15.62v-1H290.19V287.43h13.35v-1H290.19V274.65h14.59v-1H289.16Zm19.58-26.73h10.41v26.73h1V274.65h9.73v-1H308.74Zm24.43,0h10.41v26.73h1V274.65h9.73v-1H333.17ZM360,301.38h15.62v-1H361V287.43H374.4v-1H361V274.65h14.59v-1H360Zm39.87-19.85c0-5.15-3.72-7.91-9-7.91h-8.68v27.76h1v-12h7.57a18.25,18.25,0,0,0,2-.08l5.66,12h1.11v-.32l-5.66-11.94A7.39,7.39,0,0,0,399.89,281.53Zm-9,6.9h-7.61V274.63h7.65c4.73,0,7.93,2.46,7.93,6.94S395.91,288.44,390.89,288.44ZM271.83,274.65H283.2v-1H272.14Zm-3.3-7.63-2.36,7.87-9.28,31,2.82.15,9.09-30.33.63-2.12,1.93-6.45h.06Z" transform="translate(-0.59 -0.51)"/><path class="cls-3" d="M305.07,288.54" transform="translate(-0.59 -0.51)"/><path class="cls-4" d="M83.92,180.7v9.44H82.7V180.7Z" transform="translate(-0.59 -0.51)"/><path class="cls-4" d="M86.15,185.2c0-.7,0-1.27-.06-1.83h1.09l.07,1.12h0a2.49,2.49,0,0,1,2.24-1.27c.94,0,2.4.56,2.4,2.89v4H90.69v-3.91c0-1.09-.41-2-1.57-2a1.81,1.81,0,0,0-1.74,1.83v4.08H86.15Z" transform="translate(-0.59 -0.51)"/><path class="cls-4" d="M99.77,180.2v8.19c0,.6,0,1.29.06,1.75H98.72L98.67,189h0a2.51,2.51,0,0,1-2.31,1.33c-1.64,0-2.9-1.39-2.9-3.45,0-2.25,1.39-3.64,3-3.64a2.27,2.27,0,0,1,2,1h0v-4Zm-1.23,5.93a2.18,2.18,0,0,0-.06-.52,1.81,1.81,0,0,0-1.78-1.43c-1.27,0-2,1.12-2,2.62s.67,2.51,2,2.51a1.85,1.85,0,0,0,1.81-1.47,2.15,2.15,0,0,0,.06-.53Z" transform="translate(-0.59 -0.51)"/><path class="cls-4" d="M103.19,181.46a.76.76,0,0,1-1.53,0,.75.75,0,0,1,.77-.77A.73.73,0,0,1,103.19,181.46Zm-1.37,8.68v-6.78H103v6.78Z" transform="translate(-0.59 -0.51)"/><path class="cls-4" d="M109.92,189.89a4.54,4.54,0,0,1-1.95.39,3.22,3.22,0,0,1-3.38-3.46,3.44,3.44,0,0,1,3.64-3.6,4.11,4.11,0,0,1,1.71.35l-.28,1a2.86,2.86,0,0,0-1.43-.32,2.56,2.56,0,0,0,0,5.1,3.5,3.5,0,0,0,1.51-.34Z" transform="translate(-0.59 -0.51)"/><path class="cls-4" d="M115.12,190.15l-.1-.85h0a2.53,2.53,0,0,1-2.07,1,1.93,1.93,0,0,1-2.07-1.95c0-1.64,1.46-2.54,4.08-2.52v-.14a1.4,1.4,0,0,0-1.54-1.57,3.38,3.38,0,0,0-1.77.5l-.28-.81a4.21,4.21,0,0,1,2.23-.6c2.07,0,2.58,1.41,2.58,2.77v2.54a9.56,9.56,0,0,0,.11,1.63Zm-.18-3.46c-1.34,0-2.87.21-2.87,1.53a1.09,1.09,0,0,0,1.16,1.18,1.69,1.69,0,0,0,1.64-1.13,1.29,1.29,0,0,0,.07-.39Z" transform="translate(-0.59 -0.51)"/><path class="cls-4" d="M119.54,181.42v1.95h1.77v.94h-1.77V188c0,.84.24,1.32.92,1.32a2.75,2.75,0,0,0,.71-.08l.06.92a3,3,0,0,1-1.09.17,1.71,1.71,0,0,1-1.33-.52,2.51,2.51,0,0,1-.48-1.76v-3.7h-1.05v-.94h1.05v-1.62Z" transform="translate(-0.59 -0.51)"/><path class="cls-4" d="M128.74,186.7a3.31,3.31,0,0,1-3.38,3.6,3.22,3.22,0,0,1-3.25-3.49,3.31,3.31,0,0,1,3.36-3.6A3.21,3.21,0,0,1,128.74,186.7Zm-5.38.07c0,1.48.85,2.61,2.06,2.61s2.06-1.11,2.06-2.63c0-1.15-.57-2.61-2-2.61S123.36,185.48,123.36,186.77Z" transform="translate(-0.59 -0.51)"/><path class="cls-4" d="M130.29,185.48c0-.8,0-1.48-.06-2.12h1.08l0,1.33h.06a2,2,0,0,1,1.88-1.48,1.32,1.32,0,0,1,.35,0v1.16a1.84,1.84,0,0,0-.42,0,1.73,1.73,0,0,0-1.65,1.58,3.44,3.44,0,0,0-.06.57v3.61h-1.22Z" transform="translate(-0.59 -0.51)"/><path class="cls-4" d="M134.7,188.88a3.23,3.23,0,0,0,1.63.49c.9,0,1.32-.45,1.32-1s-.35-.91-1.26-1.25c-1.22-.43-1.79-1.11-1.79-1.92a2.09,2.09,0,0,1,2.34-2,3.38,3.38,0,0,1,1.67.42l-.31.9a2.64,2.64,0,0,0-1.39-.39c-.73,0-1.13.42-1.13.92s.41.81,1.29,1.15c1.18.45,1.78,1,1.78,2,0,1.19-.92,2-2.54,2a3.86,3.86,0,0,1-1.9-.46Z" transform="translate(-0.59 -0.51)"/><path class="cls-4" d="M472.88,188.84a6,6,0,0,1-2.49.45,4.41,4.41,0,0,1-4.66-4.78,4.7,4.7,0,0,1,4.93-5,5.06,5.06,0,0,1,2.24.42l-.29,1a4.43,4.43,0,0,0-1.9-.39c-2.21,0-3.68,1.42-3.68,3.89,0,2.31,1.33,3.8,3.63,3.8a4.88,4.88,0,0,0,2-.39Z" transform="translate(-0.59 -0.51)"/><path class="cls-4" d="M480.34,185.7a3.31,3.31,0,0,1-3.38,3.6,3.22,3.22,0,0,1-3.25-3.49,3.31,3.31,0,0,1,3.36-3.6A3.21,3.21,0,0,1,480.34,185.7Zm-5.38.07c0,1.48.85,2.61,2.06,2.61s2.06-1.11,2.06-2.63c0-1.15-.57-2.61-2-2.61S475,184.48,475,185.77Z" transform="translate(-0.59 -0.51)"/><path class="cls-4" d="M487.57,187.3c0,.7,0,1.32.06,1.85h-1.09l-.07-1.11h0a2.55,2.55,0,0,1-2.24,1.26c-1.06,0-2.34-.59-2.34-3v-4h1.23v3.75c0,1.29.39,2.16,1.51,2.16a1.73,1.73,0,0,0,1.74-1.75v-4.16h1.23Z" transform="translate(-0.59 -0.51)"/><path class="cls-4" d="M489.61,184.48c0-.8,0-1.48-.06-2.12h1.08l0,1.33h.06a2,2,0,0,1,1.88-1.48,1.31,1.31,0,0,1,.35,0v1.16a1.83,1.83,0,0,0-.42,0,1.73,1.73,0,0,0-1.65,1.58,3.44,3.44,0,0,0-.06.57v3.61h-1.22Z" transform="translate(-0.59 -0.51)"/><path class="cls-4" d="M494,187.88a3.23,3.23,0,0,0,1.63.49c.9,0,1.32-.45,1.32-1s-.35-.91-1.26-1.25c-1.22-.43-1.79-1.11-1.79-1.92a2.09,2.09,0,0,1,2.34-2,3.39,3.39,0,0,1,1.67.42l-.31.9a2.64,2.64,0,0,0-1.39-.39c-.73,0-1.13.42-1.13.92s.41.81,1.29,1.15c1.18.45,1.78,1,1.78,2,0,1.19-.92,2-2.54,2a3.86,3.86,0,0,1-1.91-.46Z" transform="translate(-0.59 -0.51)"/><path class="cls-4" d="M500.42,186a2.17,2.17,0,0,0,2.33,2.35,4.46,4.46,0,0,0,1.88-.35l.21.88a5.48,5.48,0,0,1-2.25.42,3.15,3.15,0,0,1-3.33-3.42c0-2,1.2-3.66,3.18-3.66,2.21,0,2.8,1.95,2.8,3.19a4.77,4.77,0,0,1,0,.57Zm3.61-.88a1.75,1.75,0,0,0-1.71-2,2,2,0,0,0-1.89,2Z" transform="translate(-0.59 -0.51)"/><path class="cls-4" d="M515.85,185.7a3.31,3.31,0,0,1-3.38,3.6,3.22,3.22,0,0,1-3.25-3.49,3.31,3.31,0,0,1,3.36-3.6A3.21,3.21,0,0,1,515.85,185.7Zm-5.38.07c0,1.48.85,2.61,2.06,2.61s2.06-1.11,2.06-2.63c0-1.15-.57-2.61-2-2.61S510.47,184.48,510.47,185.77Z" transform="translate(-0.59 -0.51)"/><path class="cls-4" d="M517.52,189.15V183.3h-1v-.94h1V182a3.2,3.2,0,0,1,.79-2.37A2.36,2.36,0,0,1,520,179a2.86,2.86,0,0,1,1.05.2l-.17,1a1.85,1.85,0,0,0-.79-.15c-1.05,0-1.32.92-1.32,2v.36h1.64v.94h-1.64v5.84Z" transform="translate(-0.59 -0.51)"/><path class="cls-4" d="M526,186.18l-1,3h-1.26L527,179.7h1.47l3.22,9.44h-1.3l-1-3Zm3.1-1-.92-2.72c-.21-.62-.35-1.18-.49-1.72h0c-.14.56-.29,1.13-.48,1.71l-.92,2.73Z" transform="translate(-0.59 -0.51)"/><path class="cls-4" d="M537.69,188.89a4.55,4.55,0,0,1-1.95.39,3.22,3.22,0,0,1-3.37-3.46,3.44,3.44,0,0,1,3.64-3.6,4.12,4.12,0,0,1,1.71.35l-.28,1a2.86,2.86,0,0,0-1.43-.32,2.56,2.56,0,0,0,0,5.1,3.5,3.5,0,0,0,1.51-.34Z" transform="translate(-0.59 -0.51)"/><path class="cls-4" d="M540.79,180.42v1.95h1.77v.94h-1.77V187c0,.84.24,1.32.92,1.32a2.73,2.73,0,0,0,.71-.08l.06.92a3,3,0,0,1-1.09.17,1.71,1.71,0,0,1-1.33-.52,2.51,2.51,0,0,1-.48-1.76v-3.7h-1.05v-.94h1.05v-1.62Z" transform="translate(-0.59 -0.51)"/><path class="cls-4" d="M545.31,180.46a.76.76,0,0,1-1.53,0,.75.75,0,0,1,.77-.77A.73.73,0,0,1,545.31,180.46Zm-1.37,8.68v-6.78h1.23v6.78Z" transform="translate(-0.59 -0.51)"/><path class="cls-4" d="M553.35,185.7a3.31,3.31,0,0,1-3.37,3.6,3.22,3.22,0,0,1-3.25-3.49,3.31,3.31,0,0,1,3.36-3.6A3.21,3.21,0,0,1,553.35,185.7Zm-5.38.07c0,1.48.85,2.61,2.06,2.61s2.06-1.11,2.06-2.63c0-1.15-.57-2.61-2-2.61S548,184.48,548,185.77Z" transform="translate(-0.59 -0.51)"/><path class="cls-4" d="M554.9,184.2c0-.7,0-1.27-.06-1.83h1.09l.07,1.12h0a2.49,2.49,0,0,1,2.24-1.27c.94,0,2.4.56,2.4,2.89v4h-1.23v-3.91c0-1.09-.41-2-1.57-2a1.75,1.75,0,0,0-1.65,1.26,1.78,1.78,0,0,0-.08.57v4.08H554.9Z" transform="translate(-0.59 -0.51)"/><path class="cls-4" d="M91.28,398.41H88.41v-1h7v1H92.51v8.4H91.28Z" transform="translate(-0.59 -0.51)"/><path class="cls-4" d="M101.54,403.37a3.31,3.31,0,0,1-3.38,3.6,3.22,3.22,0,0,1-3.25-3.49,3.31,3.31,0,0,1,3.36-3.6A3.21,3.21,0,0,1,101.54,403.37Zm-5.38.07c0,1.48.85,2.61,2.06,2.61s2.06-1.11,2.06-2.63c0-1.15-.57-2.61-2-2.61S96.17,402.15,96.17,403.44Z" transform="translate(-0.59 -0.51)"/><path class="cls-4" d="M109.23,403.37a3.31,3.31,0,0,1-3.38,3.6,3.22,3.22,0,0,1-3.25-3.49,3.31,3.31,0,0,1,3.36-3.6A3.21,3.21,0,0,1,109.23,403.37Zm-5.38.07c0,1.48.85,2.61,2.06,2.61s2.06-1.11,2.06-2.63c0-1.15-.57-2.61-2-2.61S103.85,402.15,103.85,403.44Z" transform="translate(-0.59 -0.51)"/><path class="cls-4" d="M110.78,396.87H112v9.95h-1.23Z" transform="translate(-0.59 -0.51)"/><path class="cls-4" d="M113.92,405.55a3.23,3.23,0,0,0,1.63.49c.9,0,1.32-.45,1.32-1s-.35-.91-1.26-1.25c-1.22-.43-1.79-1.11-1.79-1.92a2.09,2.09,0,0,1,2.34-2,3.38,3.38,0,0,1,1.67.42l-.31.9a2.64,2.64,0,0,0-1.39-.39c-.73,0-1.13.42-1.13.92s.41.81,1.29,1.15c1.18.45,1.78,1,1.78,2,0,1.19-.92,2-2.54,2a3.86,3.86,0,0,1-1.9-.46Z" transform="translate(-0.59 -0.51)"/><path class="cls-4" d="M478.48,403.84l-1,3h-1.26l3.21-9.44h1.47l3.22,9.44h-1.3l-1-3Zm3.1-1-.92-2.72c-.21-.62-.35-1.18-.49-1.72h0c-.14.56-.29,1.13-.48,1.71l-.92,2.73Z" transform="translate(-0.59 -0.51)"/><path class="cls-4" d="M486.83,398.09V400h1.77V401h-1.77v3.66c0,.84.24,1.32.92,1.32a2.73,2.73,0,0,0,.71-.08l.06.92a3,3,0,0,1-1.09.17,1.71,1.71,0,0,1-1.33-.52,2.51,2.51,0,0,1-.48-1.76V401h-1.05V400h1.05v-1.62Z" transform="translate(-0.59 -0.51)"/><path class="cls-4" d="M491.46,398.09V400h1.77V401h-1.77v3.66c0,.84.24,1.32.92,1.32a2.73,2.73,0,0,0,.71-.08l.06.92a3,3,0,0,1-1.09.17,1.71,1.71,0,0,1-1.33-.52,2.51,2.51,0,0,1-.48-1.76V401h-1.05V400h1.05v-1.62Z" transform="translate(-0.59 -0.51)"/><path class="cls-4" d="M498.37,406.81l-.1-.85h0a2.53,2.53,0,0,1-2.07,1,1.93,1.93,0,0,1-2.07-1.95c0-1.64,1.46-2.54,4.08-2.52v-.14a1.4,1.4,0,0,0-1.54-1.57,3.38,3.38,0,0,0-1.76.5l-.28-.81a4.21,4.21,0,0,1,2.23-.6c2.07,0,2.58,1.41,2.58,2.77v2.54a9.56,9.56,0,0,0,.11,1.63Zm-.18-3.46c-1.34,0-2.87.21-2.87,1.53a1.09,1.09,0,0,0,1.16,1.18,1.69,1.69,0,0,0,1.64-1.13,1.29,1.29,0,0,0,.07-.39Z" transform="translate(-0.59 -0.51)"/><path class="cls-4" d="M506.19,406.56a4.54,4.54,0,0,1-1.95.39,3.22,3.22,0,0,1-3.38-3.46,3.44,3.44,0,0,1,3.64-3.6,4.11,4.11,0,0,1,1.71.35l-.28,1a2.86,2.86,0,0,0-1.43-.32,2.56,2.56,0,0,0,0,5.1,3.5,3.5,0,0,0,1.51-.34Z" transform="translate(-0.59 -0.51)"/><path class="cls-4" d="M508.85,403.14h0c.17-.24.41-.53.6-.77l2-2.34H513l-2.62,2.79,3,4h-1.5l-2.34-3.25-.63.7v2.55h-1.22v-9.95h1.22Z" transform="translate(-0.59 -0.51)"/><path class="cls-4" d="M471.64,412.48a14.11,14.11,0,0,1,2.34-.18,3.88,3.88,0,0,1,2.65.78,2.54,2.54,0,0,1,.83,2,2.78,2.78,0,0,1-.73,2,3.91,3.91,0,0,1-2.89,1,4.18,4.18,0,0,1-1-.08v3.78h-1.22Zm1.22,4.55a4.1,4.1,0,0,0,1,.1c1.47,0,2.37-.71,2.37-2s-.88-1.85-2.23-1.85a5.14,5.14,0,0,0-1.15.1Z" transform="translate(-0.59 -0.51)"/><path class="cls-4" d="M482.43,421.81l-.1-.85h0a2.53,2.53,0,0,1-2.07,1,1.93,1.93,0,0,1-2.07-1.95c0-1.64,1.46-2.54,4.08-2.52v-.14a1.4,1.4,0,0,0-1.54-1.57,3.38,3.38,0,0,0-1.76.5l-.28-.81a4.21,4.21,0,0,1,2.23-.6c2.07,0,2.58,1.41,2.58,2.77v2.54a9.56,9.56,0,0,0,.11,1.63Zm-.18-3.46c-1.34,0-2.87.21-2.87,1.53a1.09,1.09,0,0,0,1.16,1.18,1.69,1.69,0,0,0,1.64-1.13,1.29,1.29,0,0,0,.07-.39Z" transform="translate(-0.59 -0.51)"/><path class="cls-4" d="M486.86,413.09V415h1.76V416h-1.76v3.66c0,.84.24,1.32.92,1.32a2.75,2.75,0,0,0,.71-.08l.06.92a3,3,0,0,1-1.09.17,1.71,1.71,0,0,1-1.33-.52,2.51,2.51,0,0,1-.48-1.76V416H484.6V415h1.05v-1.62Z" transform="translate(-0.59 -0.51)"/><path class="cls-4" d="M491.49,413.09V415h1.76V416h-1.76v3.66c0,.84.24,1.32.92,1.32a2.75,2.75,0,0,0,.71-.08l.06.92a3,3,0,0,1-1.09.17,1.71,1.71,0,0,1-1.33-.52,2.51,2.51,0,0,1-.48-1.76V416h-1.05V415h1.05v-1.62Z" transform="translate(-0.59 -0.51)"/><path class="cls-4" d="M495.24,418.65a2.17,2.17,0,0,0,2.33,2.35,4.45,4.45,0,0,0,1.88-.35l.21.88a5.48,5.48,0,0,1-2.25.42,3.15,3.15,0,0,1-3.33-3.42c0-2,1.21-3.66,3.18-3.66,2.21,0,2.8,1.95,2.8,3.19a4.73,4.73,0,0,1,0,.57Zm3.61-.88a1.76,1.76,0,0,0-1.71-2,2,2,0,0,0-1.89,2Z" transform="translate(-0.59 -0.51)"/><path class="cls-4" d="M501.57,417.15c0-.8,0-1.48-.06-2.12h1.08l0,1.33h.06a2,2,0,0,1,1.88-1.48,1.31,1.31,0,0,1,.35,0v1.16a1.83,1.83,0,0,0-.42,0,1.73,1.73,0,0,0-1.65,1.58,3.44,3.44,0,0,0-.06.57v3.61h-1.22Z" transform="translate(-0.59 -0.51)"/><path class="cls-4" d="M506.2,416.87c0-.7,0-1.27-.06-1.83h1.09l.07,1.12h0a2.49,2.49,0,0,1,2.24-1.27c.94,0,2.39.56,2.39,2.89v4h-1.23V417.9c0-1.09-.41-2-1.57-2a1.75,1.75,0,0,0-1.65,1.26,1.78,1.78,0,0,0-.08.57v4.08H506.2Z" transform="translate(-0.59 -0.51)"/><path class="cls-4" d="M513.8,420.55a3.23,3.23,0,0,0,1.63.49c.9,0,1.32-.45,1.32-1s-.35-.91-1.26-1.25c-1.22-.43-1.79-1.11-1.79-1.92a2.09,2.09,0,0,1,2.34-2,3.39,3.39,0,0,1,1.67.42l-.31.9a2.64,2.64,0,0,0-1.39-.39c-.73,0-1.13.42-1.13.92s.41.81,1.29,1.15c1.18.45,1.78,1,1.78,2,0,1.19-.92,2-2.54,2a3.86,3.86,0,0,1-1.9-.46Z" transform="translate(-0.59 -0.51)"/><path class="cls-4" d="M290.07,587.74H287.2v-1h7v1H291.3v8.4h-1.23Z" transform="translate(-0.59 -0.51)"/><path class="cls-4" d="M295.09,586.2h1.23v4.23h0a2.29,2.29,0,0,1,.88-.87,2.54,2.54,0,0,1,1.26-.35c.91,0,2.37.56,2.37,2.9v4h-1.23v-3.89c0-1.09-.41-2-1.57-2a1.77,1.77,0,0,0-1.65,1.23,1.49,1.49,0,0,0-.08.59v4.09h-1.23Z" transform="translate(-0.59 -0.51)"/><path class="cls-4" d="M302.86,591.48c0-.8,0-1.48-.06-2.12h1.08l0,1.33H304a2,2,0,0,1,1.88-1.48,1.32,1.32,0,0,1,.35,0v1.16a1.83,1.83,0,0,0-.42,0,1.73,1.73,0,0,0-1.65,1.58,3.44,3.44,0,0,0-.06.57v3.61h-1.22Z" transform="translate(-0.59 -0.51)"/><path class="cls-4" d="M308,593a2.17,2.17,0,0,0,2.33,2.35,4.46,4.46,0,0,0,1.88-.35l.21.88a5.48,5.48,0,0,1-2.25.42,3.15,3.15,0,0,1-3.33-3.42c0-2,1.2-3.66,3.18-3.66,2.21,0,2.8,1.95,2.8,3.19a4.73,4.73,0,0,1,0,.57Zm3.61-.88a1.75,1.75,0,0,0-1.71-2,2,2,0,0,0-1.89,2Z" transform="translate(-0.59 -0.51)"/><path class="cls-4" d="M318.07,596.15l-.1-.85h0a2.53,2.53,0,0,1-2.07,1,1.93,1.93,0,0,1-2.07-1.95c0-1.64,1.46-2.54,4.08-2.52v-.14a1.4,1.4,0,0,0-1.54-1.57,3.38,3.38,0,0,0-1.77.5l-.28-.81a4.21,4.21,0,0,1,2.23-.6c2.07,0,2.58,1.41,2.58,2.77v2.54a9.56,9.56,0,0,0,.11,1.63Zm-.18-3.46c-1.34,0-2.87.21-2.87,1.53a1.09,1.09,0,0,0,1.16,1.18,1.69,1.69,0,0,0,1.64-1.13,1.29,1.29,0,0,0,.07-.39Z" transform="translate(-0.59 -0.51)"/><path class="cls-4" d="M322.49,587.42v1.95h1.77v.94h-1.77V594c0,.84.24,1.32.92,1.32a2.75,2.75,0,0,0,.71-.08l.06.92a3,3,0,0,1-1.09.17,1.71,1.71,0,0,1-1.33-.52,2.51,2.51,0,0,1-.48-1.76v-3.7h-1.05v-.94h1.05v-1.62Z" transform="translate(-0.59 -0.51)"/><path class="cls-4" d="M289.9,608.18l-1,3h-1.26l3.21-9.44h1.47l3.22,9.44h-1.3l-1-3Zm3.1-1-.92-2.72c-.21-.62-.35-1.18-.49-1.72h0c-.14.56-.29,1.13-.48,1.71l-.92,2.73Z" transform="translate(-0.59 -0.51)"/><path class="cls-4" d="M301.56,610.89a4.54,4.54,0,0,1-1.95.39,3.22,3.22,0,0,1-3.38-3.46,3.44,3.44,0,0,1,3.64-3.6,4.11,4.11,0,0,1,1.71.35l-.28,1a2.86,2.86,0,0,0-1.43-.32,2.56,2.56,0,0,0,0,5.1,3.5,3.5,0,0,0,1.51-.34Z" transform="translate(-0.59 -0.51)"/><path class="cls-4" d="M304.67,602.42v1.95h1.77v.94h-1.77V609c0,.84.24,1.32.92,1.32a2.75,2.75,0,0,0,.71-.08l.06.92a3,3,0,0,1-1.09.17,1.71,1.71,0,0,1-1.33-.52,2.51,2.51,0,0,1-.48-1.76v-3.7h-1.05v-.94h1.05v-1.62Z" transform="translate(-0.59 -0.51)"/><path class="cls-4" d="M313.87,607.7a3.31,3.31,0,0,1-3.38,3.6,3.22,3.22,0,0,1-3.25-3.49,3.31,3.31,0,0,1,3.36-3.6A3.21,3.21,0,0,1,313.87,607.7Zm-5.38.07c0,1.48.85,2.61,2.06,2.61s2.06-1.11,2.06-2.63c0-1.15-.57-2.61-2-2.61S308.49,606.48,308.49,607.77Z" transform="translate(-0.59 -0.51)"/><path class="cls-4" d="M315.42,606.48c0-.8,0-1.48-.06-2.12h1.08l0,1.33h.06a2,2,0,0,1,1.88-1.48,1.32,1.32,0,0,1,.35,0v1.16a1.83,1.83,0,0,0-.42,0A1.73,1.73,0,0,0,316.7,607a3.44,3.44,0,0,0-.06.57v3.61h-1.22Z" transform="translate(-0.59 -0.51)"/><path class="cls-4" d="M319.83,609.88a3.23,3.23,0,0,0,1.63.49c.9,0,1.32-.45,1.32-1s-.35-.91-1.26-1.25c-1.22-.43-1.79-1.11-1.79-1.92a2.09,2.09,0,0,1,2.34-2,3.38,3.38,0,0,1,1.67.42l-.31.9a2.64,2.64,0,0,0-1.39-.39c-.73,0-1.13.42-1.13.92s.41.81,1.29,1.15c1.18.45,1.78,1,1.78,2,0,1.19-.92,2-2.54,2a3.86,3.86,0,0,1-1.9-.46Z" transform="translate(-0.59 -0.51)"/><path class="cls-5" d="M281.47,523.91c0-.49,11.08-1.7,11.08-1.7s6.78-13,9.46-13.59c2-.42,3.82,1.17,4.36,1.11.82-.09,2.6-1.79,4.31-.6s7.27,13.25,7.27,13.25,11.42.85,11.08,1.53-17.73,11.22-23.18,11.56S281.47,524.4,281.47,523.91Zm45.23,28c-2.17-1.47-7.24-2.5-7.24-2.5l9-7.37-9-9-.06.17c-.74,7.66-3.74,20.59-13.75,20.59-10.4,0-12.75-13.08-13.83-20.75h0L283.07,542l9.17,7.4s-5,1-7.17,2.52c-3.07,2.08-8.75,13.73-8.74,17.51a7.49,7.49,0,0,0,7.32,6.79c.86,0,43.93,0,44.81,0a7.25,7.25,0,0,0,7.05-6.86C335.51,565.55,329.77,554,326.71,551.94Z" transform="translate(-0.59 -0.51)"/><path class="cls-6" d="M126.8,348.27l-8.14-.12-2.91-5.25,3.07-5.14,8.14.12a1.11,1.11,0,0,0,.72-.21,1.29,1.29,0,0,0,.35-1.76c-.2-.27-.44-.61-.7-.94l0,0v0c-.26-.33-.56-.67-.85-1a13,13,0,0,0-18.24-.28,13,13,0,0,0-3.79,11.13L81.25,367.28A7.58,7.58,0,0,0,81.09,378a7.68,7.68,0,0,0,10.71.16l23.15-22.48a12.86,12.86,0,0,0,11.23-3.45,14.69,14.69,0,0,0,1.61-1.91l0,0v0a1.17,1.17,0,0,0,.22-.68A1.24,1.24,0,0,0,126.8,348.27ZM89.65,375.32a4.09,4.09,0,1,1,.12-5.79A4.13,4.13,0,0,1,89.65,375.32Z" transform="translate(-0.59 -0.51)"/><path class="cls-7" d="M509.55,334.85c.41-3-1.27-8.05-5.53-7.95-2.8.07-4,1.08-5-.12-1.24-1.53-2.78-2.91-3.39-2.63s-.81,4.72-.81,4.72-6.75,2.15-7.42,5.78c-.35,1.91-7.93,4.48-7.93,4.48s.59,5.91,1.35,6.1a6.88,6.88,0,0,0,1.84.1l-.65,1.4,2.47.06s1.69-3.09,3-2.77a9.09,9.09,0,0,0,5.38-.66s-19.46,13.9-6.3,27.07c.38,2.68.57,4,.57,4s-4.2,1.79-4.58,3.81a6,6,0,0,0,1.14,4.06h-2.75v3.77H509.2v-3.77h-3.09s1.63-2.08,1-4.07c-.72-2.28-4.37-3.74-4.37-3.74l.15-4.56s3.12-.65,4.3-1.65c-2.29-.6-2.86-10.89-2.65-14.89C504.78,349,509.08,338.33,509.55,334.85Z" transform="translate(-0.59 -0.51)"/><path class="cls-8" d="M120.53,121.1a24.75,24.75,0,0,1,1.25,7.8c0,6.47-1.82,12-8.82,15.9v28.3h12v-52Zm20.68,52h-12V137.59h12Zm-32.75.06h-12V152.61h12ZM80.31,146.7a1.63,1.63,0,0,0,0,2.34,1.66,1.66,0,0,0,2.34,0l7.15-7.14a18.76,18.76,0,0,0,4.6,2.79A18,18,0,0,0,114,140.78h0a18.16,18.16,0,0,0,3.9-5.84l0-.09a18.15,18.15,0,0,0,1.33-6.78A18.12,18.12,0,0,0,114,115.31a18,18,0,0,0-12.75-5.26,17.7,17.7,0,0,0-6.88,1.34h0a18.51,18.51,0,0,0-5.83,3.92l-.08.09a18,18,0,0,0-3.83,5.74l0,.11a18.1,18.1,0,0,0,0,13.69,18.41,18.41,0,0,0,2.81,4.62l-7.15,7.14Zm10.59-8.24a14.67,14.67,0,0,1-4.3-10.4,14.82,14.82,0,0,1,1.07-5.56l0-.07a14.48,14.48,0,0,1,3.11-4.71l.08-.08a14.91,14.91,0,0,1,4.77-3.19h0a15,15,0,0,1,5.63-1.1,14.62,14.62,0,0,1,13.59,9.09,14.68,14.68,0,0,1,0,11.16l0,.08a14.69,14.69,0,0,1-3.18,4.79h0a15.25,15.25,0,0,1-4.78,3.18,14.64,14.64,0,0,1-11.27,0,15.3,15.3,0,0,1-4.74-3.16l0,0ZM90.64,127a1,1,0,0,0-1,1,11.39,11.39,0,0,0,.89,4.44l0,.07a11.7,11.7,0,0,0,6.28,6.26,11.79,11.79,0,0,0,4.46.88,1,1,0,0,0,1-1,1,1,0,0,0-1-1,9.28,9.28,0,0,1-3.7-.74,9.45,9.45,0,0,1-3.13-2.09,9.27,9.27,0,0,1-2.09-3.1l0,0a9.43,9.43,0,0,1-.73-3.69,1,1,0,0,0-1-1Z" transform="translate(-0.59 -0.51)"/><path class="cls-9" d="M535.55,122.49H524.18v-2a6.5,6.5,0,0,0-6.54-6.52h-8.4a6.49,6.49,0,0,0-6.55,6.52v2H491.31a7.84,7.84,0,0,0-7.79,7.82v31.15a7.81,7.81,0,0,0,7.79,7.78h44.24a7.82,7.82,0,0,0,7.81-7.78V130.32A7.83,7.83,0,0,0,535.55,122.49Zm-28.34-1.7a3,3,0,0,1,.87-2.1v0a2.93,2.93,0,0,1,2.09-.87h6.56a2.94,2.94,0,0,1,3,2.95v1.57H507.21ZM527.72,150a1.39,1.39,0,0,1-1.36,1.39H519v7.4a1.39,1.39,0,0,1-1.41,1.37h-8.23a1.36,1.36,0,0,1-1.37-1.37v-7.4h-7.42a1.39,1.39,0,0,1-1.37-1.39v-8.27a1.39,1.39,0,0,1,1.37-1.35h7.42V133a1.36,1.36,0,0,1,1.37-1.35h8.23A1.38,1.38,0,0,1,519,133v7.42h7.41a1.38,1.38,0,0,1,1.36,1.35Z" transform="translate(-0.59 -0.51)"/><rect class="cls-4" x="304.33" y="453.73" width="2" height="43.63"/><path class="cls-4" d="M305.91,448.21a30.22,30.22,0,0,0,4.76,8.55L305.91,455l-4.75,1.72A30.2,30.2,0,0,0,305.91,448.21Z" transform="translate(-0.59 -0.51)"/><rect class="cls-4" x="448.39" y="324.05" width="2" height="43.87" transform="translate(-69.83 574.97) rotate(-61.46)"/><path class="cls-4" d="M424.82,332.62a30.22,30.22,0,0,0,9.78-.09l-3.78,3.36-.76,5A30.2,30.2,0,0,0,424.82,332.62Z" transform="translate(-0.59 -0.51)"/><rect class="cls-4" x="138.06" y="344.69" width="49.44" height="2" transform="translate(-120.52 88.13) rotate(-22.51)"/><path class="cls-4" d="M191.19,333.91a30.22,30.22,0,0,0-6.07,7.67l-.23-5.05-3.41-3.73A30.19,30.19,0,0,0,191.19,333.91Z" transform="translate(-0.59 -0.51)"/><rect class="cls-4" x="427.45" y="172.1" width="43.87" height="2" transform="translate(-28.69 235.14) rotate(-28.53)"/><path class="cls-4" d="M424.82,186.46a30.22,30.22,0,0,0,5.24-8.26l.76,5,3.78,3.36A30.19,30.19,0,0,0,424.82,186.46Z" transform="translate(-0.59 -0.51)"/><rect class="cls-4" x="166.89" y="152.97" width="2" height="40.36" transform="translate(-63.52 242.59) rotate(-62.75)"/><path class="cls-4" d="M191.19,185.16a30.22,30.22,0,0,0-9.78.31l3.71-3.44.65-5A30.2,30.2,0,0,0,191.19,185.16Z" transform="translate(-0.59 -0.51)"/><path class="cls-3" d="M305.07,288.54" transform="translate(-0.59 -0.51)"/><path class="cls-4" d="M83.92,180.7v9.44H82.7V180.7Z" transform="translate(-0.59 -0.51)"/><path class="cls-4" d="M86.15,185.2c0-.7,0-1.27-.06-1.83h1.09l.07,1.12h0a2.49,2.49,0,0,1,2.24-1.27c.94,0,2.4.56,2.4,2.89v4H90.69v-3.91c0-1.09-.41-2-1.57-2a1.81,1.81,0,0,0-1.74,1.83v4.08H86.15Z" transform="translate(-0.59 -0.51)"/><path class="cls-4" d="M99.77,180.2v8.19c0,.6,0,1.29.06,1.75H98.72L98.67,189h0a2.51,2.51,0,0,1-2.31,1.33c-1.64,0-2.9-1.39-2.9-3.45,0-2.25,1.39-3.64,3-3.64a2.27,2.27,0,0,1,2,1h0v-4Zm-1.23,5.93a2.18,2.18,0,0,0-.06-.52,1.81,1.81,0,0,0-1.78-1.43c-1.27,0-2,1.12-2,2.62s.67,2.51,2,2.51a1.85,1.85,0,0,0,1.81-1.47,2.15,2.15,0,0,0,.06-.53Z" transform="translate(-0.59 -0.51)"/><path class="cls-4" d="M103.19,181.46a.76.76,0,0,1-1.53,0,.75.75,0,0,1,.77-.77A.73.73,0,0,1,103.19,181.46Zm-1.37,8.68v-6.78H103v6.78Z" transform="translate(-0.59 -0.51)"/><path class="cls-4" d="M109.92,189.89a4.54,4.54,0,0,1-1.95.39,3.22,3.22,0,0,1-3.38-3.46,3.44,3.44,0,0,1,3.64-3.6,4.11,4.11,0,0,1,1.71.35l-.28,1a2.86,2.86,0,0,0-1.43-.32,2.56,2.56,0,0,0,0,5.1,3.5,3.5,0,0,0,1.51-.34Z" transform="translate(-0.59 -0.51)"/><path class="cls-4" d="M115.12,190.15l-.1-.85h0a2.53,2.53,0,0,1-2.07,1,1.93,1.93,0,0,1-2.07-1.95c0-1.64,1.46-2.54,4.08-2.52v-.14a1.4,1.4,0,0,0-1.54-1.57,3.38,3.38,0,0,0-1.77.5l-.28-.81a4.21,4.21,0,0,1,2.23-.6c2.07,0,2.58,1.41,2.58,2.77v2.54a9.56,9.56,0,0,0,.11,1.63Zm-.18-3.46c-1.34,0-2.87.21-2.87,1.53a1.09,1.09,0,0,0,1.16,1.18,1.69,1.69,0,0,0,1.64-1.13,1.29,1.29,0,0,0,.07-.39Z" transform="translate(-0.59 -0.51)"/><path class="cls-4" d="M119.54,181.42v1.95h1.77v.94h-1.77V188c0,.84.24,1.32.92,1.32a2.75,2.75,0,0,0,.71-.08l.06.92a3,3,0,0,1-1.09.17,1.71,1.71,0,0,1-1.33-.52,2.51,2.51,0,0,1-.48-1.76v-3.7h-1.05v-.94h1.05v-1.62Z" transform="translate(-0.59 -0.51)"/><path class="cls-4" d="M128.74,186.7a3.31,3.31,0,0,1-3.38,3.6,3.22,3.22,0,0,1-3.25-3.49,3.31,3.31,0,0,1,3.36-3.6A3.21,3.21,0,0,1,128.74,186.7Zm-5.38.07c0,1.48.85,2.61,2.06,2.61s2.06-1.11,2.06-2.63c0-1.15-.57-2.61-2-2.61S123.36,185.48,123.36,186.77Z" transform="translate(-0.59 -0.51)"/><path class="cls-4" d="M130.29,185.48c0-.8,0-1.48-.06-2.12h1.08l0,1.33h.06a2,2,0,0,1,1.88-1.48,1.32,1.32,0,0,1,.35,0v1.16a1.84,1.84,0,0,0-.42,0,1.73,1.73,0,0,0-1.65,1.58,3.44,3.44,0,0,0-.06.57v3.61h-1.22Z" transform="translate(-0.59 -0.51)"/><path class="cls-4" d="M134.7,188.88a3.23,3.23,0,0,0,1.63.49c.9,0,1.32-.45,1.32-1s-.35-.91-1.26-1.25c-1.22-.43-1.79-1.11-1.79-1.92a2.09,2.09,0,0,1,2.34-2,3.38,3.38,0,0,1,1.67.42l-.31.9a2.64,2.64,0,0,0-1.39-.39c-.73,0-1.13.42-1.13.92s.41.81,1.29,1.15c1.18.45,1.78,1,1.78,2,0,1.19-.92,2-2.54,2a3.86,3.86,0,0,1-1.9-.46Z" transform="translate(-0.59 -0.51)"/><path class="cls-4" d="M472.88,188.84a6,6,0,0,1-2.49.45,4.41,4.41,0,0,1-4.66-4.78,4.7,4.7,0,0,1,4.93-5,5.06,5.06,0,0,1,2.24.42l-.29,1a4.43,4.43,0,0,0-1.9-.39c-2.21,0-3.68,1.42-3.68,3.89,0,2.31,1.33,3.8,3.63,3.8a4.88,4.88,0,0,0,2-.39Z" transform="translate(-0.59 -0.51)"/><path class="cls-4" d="M480.34,185.7a3.31,3.31,0,0,1-3.38,3.6,3.22,3.22,0,0,1-3.25-3.49,3.31,3.31,0,0,1,3.36-3.6A3.21,3.21,0,0,1,480.34,185.7Zm-5.38.07c0,1.48.85,2.61,2.06,2.61s2.06-1.11,2.06-2.63c0-1.15-.57-2.61-2-2.61S475,184.48,475,185.77Z" transform="translate(-0.59 -0.51)"/><path class="cls-4" d="M487.57,187.3c0,.7,0,1.32.06,1.85h-1.09l-.07-1.11h0a2.55,2.55,0,0,1-2.24,1.26c-1.06,0-2.34-.59-2.34-3v-4h1.23v3.75c0,1.29.39,2.16,1.51,2.16a1.73,1.73,0,0,0,1.74-1.75v-4.16h1.23Z" transform="translate(-0.59 -0.51)"/><path class="cls-4" d="M489.61,184.48c0-.8,0-1.48-.06-2.12h1.08l0,1.33h.06a2,2,0,0,1,1.88-1.48,1.31,1.31,0,0,1,.35,0v1.16a1.83,1.83,0,0,0-.42,0,1.73,1.73,0,0,0-1.65,1.58,3.44,3.44,0,0,0-.06.57v3.61h-1.22Z" transform="translate(-0.59 -0.51)"/><path class="cls-4" d="M494,187.88a3.23,3.23,0,0,0,1.63.49c.9,0,1.32-.45,1.32-1s-.35-.91-1.26-1.25c-1.22-.43-1.79-1.11-1.79-1.92a2.09,2.09,0,0,1,2.34-2,3.39,3.39,0,0,1,1.67.42l-.31.9a2.64,2.64,0,0,0-1.39-.39c-.73,0-1.13.42-1.13.92s.41.81,1.29,1.15c1.18.45,1.78,1,1.78,2,0,1.19-.92,2-2.54,2a3.86,3.86,0,0,1-1.91-.46Z" transform="translate(-0.59 -0.51)"/><path class="cls-4" d="M500.42,186a2.17,2.17,0,0,0,2.33,2.35,4.46,4.46,0,0,0,1.88-.35l.21.88a5.48,5.48,0,0,1-2.25.42,3.15,3.15,0,0,1-3.33-3.42c0-2,1.2-3.66,3.18-3.66,2.21,0,2.8,1.95,2.8,3.19a4.77,4.77,0,0,1,0,.57Zm3.61-.88a1.75,1.75,0,0,0-1.71-2,2,2,0,0,0-1.89,2Z" transform="translate(-0.59 -0.51)"/><path class="cls-4" d="M515.85,185.7a3.31,3.31,0,0,1-3.38,3.6,3.22,3.22,0,0,1-3.25-3.49,3.31,3.31,0,0,1,3.36-3.6A3.21,3.21,0,0,1,515.85,185.7Zm-5.38.07c0,1.48.85,2.61,2.06,2.61s2.06-1.11,2.06-2.63c0-1.15-.57-2.61-2-2.61S510.47,184.48,510.47,185.77Z" transform="translate(-0.59 -0.51)"/><path class="cls-4" d="M517.52,189.15V183.3h-1v-.94h1V182a3.2,3.2,0,0,1,.79-2.37A2.36,2.36,0,0,1,520,179a2.86,2.86,0,0,1,1.05.2l-.17,1a1.85,1.85,0,0,0-.79-.15c-1.05,0-1.32.92-1.32,2v.36h1.64v.94h-1.64v5.84Z" transform="translate(-0.59 -0.51)"/><path class="cls-4" d="M526,186.18l-1,3h-1.26L527,179.7h1.47l3.22,9.44h-1.3l-1-3Zm3.1-1-.92-2.72c-.21-.62-.35-1.18-.49-1.72h0c-.14.56-.29,1.13-.48,1.71l-.92,2.73Z" transform="translate(-0.59 -0.51)"/><path class="cls-4" d="M537.69,188.89a4.55,4.55,0,0,1-1.95.39,3.22,3.22,0,0,1-3.37-3.46,3.44,3.44,0,0,1,3.64-3.6,4.12,4.12,0,0,1,1.71.35l-.28,1a2.86,2.86,0,0,0-1.43-.32,2.56,2.56,0,0,0,0,5.1,3.5,3.5,0,0,0,1.51-.34Z" transform="translate(-0.59 -0.51)"/><path class="cls-4" d="M540.79,180.42v1.95h1.77v.94h-1.77V187c0,.84.24,1.32.92,1.32a2.73,2.73,0,0,0,.71-.08l.06.92a3,3,0,0,1-1.09.17,1.71,1.71,0,0,1-1.33-.52,2.51,2.51,0,0,1-.48-1.76v-3.7h-1.05v-.94h1.05v-1.62Z" transform="translate(-0.59 -0.51)"/><path class="cls-4" d="M545.31,180.46a.76.76,0,0,1-1.53,0,.75.75,0,0,1,.77-.77A.73.73,0,0,1,545.31,180.46Zm-1.37,8.68v-6.78h1.23v6.78Z" transform="translate(-0.59 -0.51)"/><path class="cls-4" d="M553.35,185.7a3.31,3.31,0,0,1-3.37,3.6,3.22,3.22,0,0,1-3.25-3.49,3.31,3.31,0,0,1,3.36-3.6A3.21,3.21,0,0,1,553.35,185.7Zm-5.38.07c0,1.48.85,2.61,2.06,2.61s2.06-1.11,2.06-2.63c0-1.15-.57-2.61-2-2.61S548,184.48,548,185.77Z" transform="translate(-0.59 -0.51)"/><path class="cls-4" d="M554.9,184.2c0-.7,0-1.27-.06-1.83h1.09l.07,1.12h0a2.49,2.49,0,0,1,2.24-1.27c.94,0,2.4.56,2.4,2.89v4h-1.23v-3.91c0-1.09-.41-2-1.57-2a1.75,1.75,0,0,0-1.65,1.26,1.78,1.78,0,0,0-.08.57v4.08H554.9Z" transform="translate(-0.59 -0.51)"/><path class="cls-4" d="M91.28,398.41H88.41v-1h7v1H92.51v8.4H91.28Z" transform="translate(-0.59 -0.51)"/><path class="cls-4" d="M101.54,403.37a3.31,3.31,0,0,1-3.38,3.6,3.22,3.22,0,0,1-3.25-3.49,3.31,3.31,0,0,1,3.36-3.6A3.21,3.21,0,0,1,101.54,403.37Zm-5.38.07c0,1.48.85,2.61,2.06,2.61s2.06-1.11,2.06-2.63c0-1.15-.57-2.61-2-2.61S96.17,402.15,96.17,403.44Z" transform="translate(-0.59 -0.51)"/><path class="cls-4" d="M109.23,403.37a3.31,3.31,0,0,1-3.38,3.6,3.22,3.22,0,0,1-3.25-3.49,3.31,3.31,0,0,1,3.36-3.6A3.21,3.21,0,0,1,109.23,403.37Zm-5.38.07c0,1.48.85,2.61,2.06,2.61s2.06-1.11,2.06-2.63c0-1.15-.57-2.61-2-2.61S103.85,402.15,103.85,403.44Z" transform="translate(-0.59 -0.51)"/><path class="cls-4" d="M110.78,396.87H112v9.95h-1.23Z" transform="translate(-0.59 -0.51)"/><path class="cls-4" d="M113.92,405.55a3.23,3.23,0,0,0,1.63.49c.9,0,1.32-.45,1.32-1s-.35-.91-1.26-1.25c-1.22-.43-1.79-1.11-1.79-1.92a2.09,2.09,0,0,1,2.34-2,3.38,3.38,0,0,1,1.67.42l-.31.9a2.64,2.64,0,0,0-1.39-.39c-.73,0-1.13.42-1.13.92s.41.81,1.29,1.15c1.18.45,1.78,1,1.78,2,0,1.19-.92,2-2.54,2a3.86,3.86,0,0,1-1.9-.46Z" transform="translate(-0.59 -0.51)"/><path class="cls-4" d="M478.48,403.84l-1,3h-1.26l3.21-9.44h1.47l3.22,9.44h-1.3l-1-3Zm3.1-1-.92-2.72c-.21-.62-.35-1.18-.49-1.72h0c-.14.56-.29,1.13-.48,1.71l-.92,2.73Z" transform="translate(-0.59 -0.51)"/><path class="cls-4" d="M486.83,398.09V400h1.77V401h-1.77v3.66c0,.84.24,1.32.92,1.32a2.73,2.73,0,0,0,.71-.08l.06.92a3,3,0,0,1-1.09.17,1.71,1.71,0,0,1-1.33-.52,2.51,2.51,0,0,1-.48-1.76V401h-1.05V400h1.05v-1.62Z" transform="translate(-0.59 -0.51)"/><path class="cls-4" d="M491.46,398.09V400h1.77V401h-1.77v3.66c0,.84.24,1.32.92,1.32a2.73,2.73,0,0,0,.71-.08l.06.92a3,3,0,0,1-1.09.17,1.71,1.71,0,0,1-1.33-.52,2.51,2.51,0,0,1-.48-1.76V401h-1.05V400h1.05v-1.62Z" transform="translate(-0.59 -0.51)"/><path class="cls-4" d="M498.37,406.81l-.1-.85h0a2.53,2.53,0,0,1-2.07,1,1.93,1.93,0,0,1-2.07-1.95c0-1.64,1.46-2.54,4.08-2.52v-.14a1.4,1.4,0,0,0-1.54-1.57,3.38,3.38,0,0,0-1.76.5l-.28-.81a4.21,4.21,0,0,1,2.23-.6c2.07,0,2.58,1.41,2.58,2.77v2.54a9.56,9.56,0,0,0,.11,1.63Zm-.18-3.46c-1.34,0-2.87.21-2.87,1.53a1.09,1.09,0,0,0,1.16,1.18,1.69,1.69,0,0,0,1.64-1.13,1.29,1.29,0,0,0,.07-.39Z" transform="translate(-0.59 -0.51)"/><path class="cls-4" d="M506.19,406.56a4.54,4.54,0,0,1-1.95.39,3.22,3.22,0,0,1-3.38-3.46,3.44,3.44,0,0,1,3.64-3.6,4.11,4.11,0,0,1,1.71.35l-.28,1a2.86,2.86,0,0,0-1.43-.32,2.56,2.56,0,0,0,0,5.1,3.5,3.5,0,0,0,1.51-.34Z" transform="translate(-0.59 -0.51)"/><path class="cls-4" d="M508.85,403.14h0c.17-.24.41-.53.6-.77l2-2.34H513l-2.62,2.79,3,4h-1.5l-2.34-3.25-.63.7v2.55h-1.22v-9.95h1.22Z" transform="translate(-0.59 -0.51)"/><path class="cls-4" d="M471.64,412.48a14.11,14.11,0,0,1,2.34-.18,3.88,3.88,0,0,1,2.65.78,2.54,2.54,0,0,1,.83,2,2.78,2.78,0,0,1-.73,2,3.91,3.91,0,0,1-2.89,1,4.18,4.18,0,0,1-1-.08v3.78h-1.22Zm1.22,4.55a4.1,4.1,0,0,0,1,.1c1.47,0,2.37-.71,2.37-2s-.88-1.85-2.23-1.85a5.14,5.14,0,0,0-1.15.1Z" transform="translate(-0.59 -0.51)"/><path class="cls-4" d="M482.43,421.81l-.1-.85h0a2.53,2.53,0,0,1-2.07,1,1.93,1.93,0,0,1-2.07-1.95c0-1.64,1.46-2.54,4.08-2.52v-.14a1.4,1.4,0,0,0-1.54-1.57,3.38,3.38,0,0,0-1.76.5l-.28-.81a4.21,4.21,0,0,1,2.23-.6c2.07,0,2.58,1.41,2.58,2.77v2.54a9.56,9.56,0,0,0,.11,1.63Zm-.18-3.46c-1.34,0-2.87.21-2.87,1.53a1.09,1.09,0,0,0,1.16,1.18,1.69,1.69,0,0,0,1.64-1.13,1.29,1.29,0,0,0,.07-.39Z" transform="translate(-0.59 -0.51)"/><path class="cls-4" d="M486.86,413.09V415h1.76V416h-1.76v3.66c0,.84.24,1.32.92,1.32a2.75,2.75,0,0,0,.71-.08l.06.92a3,3,0,0,1-1.09.17,1.71,1.71,0,0,1-1.33-.52,2.51,2.51,0,0,1-.48-1.76V416H484.6V415h1.05v-1.62Z" transform="translate(-0.59 -0.51)"/><path class="cls-4" d="M491.49,413.09V415h1.76V416h-1.76v3.66c0,.84.24,1.32.92,1.32a2.75,2.75,0,0,0,.71-.08l.06.92a3,3,0,0,1-1.09.17,1.71,1.71,0,0,1-1.33-.52,2.51,2.51,0,0,1-.48-1.76V416h-1.05V415h1.05v-1.62Z" transform="translate(-0.59 -0.51)"/><path class="cls-4" d="M495.24,418.65a2.17,2.17,0,0,0,2.33,2.35,4.45,4.45,0,0,0,1.88-.35l.21.88a5.48,5.48,0,0,1-2.25.42,3.15,3.15,0,0,1-3.33-3.42c0-2,1.21-3.66,3.18-3.66,2.21,0,2.8,1.95,2.8,3.19a4.73,4.73,0,0,1,0,.57Zm3.61-.88a1.76,1.76,0,0,0-1.71-2,2,2,0,0,0-1.89,2Z" transform="translate(-0.59 -0.51)"/><path class="cls-4" d="M501.57,417.15c0-.8,0-1.48-.06-2.12h1.08l0,1.33h.06a2,2,0,0,1,1.88-1.48,1.31,1.31,0,0,1,.35,0v1.16a1.83,1.83,0,0,0-.42,0,1.73,1.73,0,0,0-1.65,1.58,3.44,3.44,0,0,0-.06.57v3.61h-1.22Z" transform="translate(-0.59 -0.51)"/><path class="cls-4" d="M506.2,416.87c0-.7,0-1.27-.06-1.83h1.09l.07,1.12h0a2.49,2.49,0,0,1,2.24-1.27c.94,0,2.39.56,2.39,2.89v4h-1.23V417.9c0-1.09-.41-2-1.57-2a1.75,1.75,0,0,0-1.65,1.26,1.78,1.78,0,0,0-.08.57v4.08H506.2Z" transform="translate(-0.59 -0.51)"/><path class="cls-4" d="M513.8,420.55a3.23,3.23,0,0,0,1.63.49c.9,0,1.32-.45,1.32-1s-.35-.91-1.26-1.25c-1.22-.43-1.79-1.11-1.79-1.92a2.09,2.09,0,0,1,2.34-2,3.39,3.39,0,0,1,1.67.42l-.31.9a2.64,2.64,0,0,0-1.39-.39c-.73,0-1.13.42-1.13.92s.41.81,1.29,1.15c1.18.45,1.78,1,1.78,2,0,1.19-.92,2-2.54,2a3.86,3.86,0,0,1-1.9-.46Z" transform="translate(-0.59 -0.51)"/><path class="cls-4" d="M290.07,587.74H287.2v-1h7v1H291.3v8.4h-1.23Z" transform="translate(-0.59 -0.51)"/><path class="cls-4" d="M295.09,586.2h1.23v4.23h0a2.29,2.29,0,0,1,.88-.87,2.54,2.54,0,0,1,1.26-.35c.91,0,2.37.56,2.37,2.9v4h-1.23v-3.89c0-1.09-.41-2-1.57-2a1.77,1.77,0,0,0-1.65,1.23,1.49,1.49,0,0,0-.08.59v4.09h-1.23Z" transform="translate(-0.59 -0.51)"/><path class="cls-4" d="M302.86,591.48c0-.8,0-1.48-.06-2.12h1.08l0,1.33H304a2,2,0,0,1,1.88-1.48,1.32,1.32,0,0,1,.35,0v1.16a1.83,1.83,0,0,0-.42,0,1.73,1.73,0,0,0-1.65,1.58,3.44,3.44,0,0,0-.06.57v3.61h-1.22Z" transform="translate(-0.59 -0.51)"/><path class="cls-4" d="M308,593a2.17,2.17,0,0,0,2.33,2.35,4.46,4.46,0,0,0,1.88-.35l.21.88a5.48,5.48,0,0,1-2.25.42,3.15,3.15,0,0,1-3.33-3.42c0-2,1.2-3.66,3.18-3.66,2.21,0,2.8,1.95,2.8,3.19a4.73,4.73,0,0,1,0,.57Zm3.61-.88a1.75,1.75,0,0,0-1.71-2,2,2,0,0,0-1.89,2Z" transform="translate(-0.59 -0.51)"/><path class="cls-4" d="M318.07,596.15l-.1-.85h0a2.53,2.53,0,0,1-2.07,1,1.93,1.93,0,0,1-2.07-1.95c0-1.64,1.46-2.54,4.08-2.52v-.14a1.4,1.4,0,0,0-1.54-1.57,3.38,3.38,0,0,0-1.77.5l-.28-.81a4.21,4.21,0,0,1,2.23-.6c2.07,0,2.58,1.41,2.58,2.77v2.54a9.56,9.56,0,0,0,.11,1.63Zm-.18-3.46c-1.34,0-2.87.21-2.87,1.53a1.09,1.09,0,0,0,1.16,1.18,1.69,1.69,0,0,0,1.64-1.13,1.29,1.29,0,0,0,.07-.39Z" transform="translate(-0.59 -0.51)"/><path class="cls-4" d="M322.49,587.42v1.95h1.77v.94h-1.77V594c0,.84.24,1.32.92,1.32a2.75,2.75,0,0,0,.71-.08l.06.92a3,3,0,0,1-1.09.17,1.71,1.71,0,0,1-1.33-.52,2.51,2.51,0,0,1-.48-1.76v-3.7h-1.05v-.94h1.05v-1.62Z" transform="translate(-0.59 -0.51)"/><path class="cls-4" d="M289.9,608.18l-1,3h-1.26l3.21-9.44h1.47l3.22,9.44h-1.3l-1-3Zm3.1-1-.92-2.72c-.21-.62-.35-1.18-.49-1.72h0c-.14.56-.29,1.13-.48,1.71l-.92,2.73Z" transform="translate(-0.59 -0.51)"/><path class="cls-4" d="M301.56,610.89a4.54,4.54,0,0,1-1.95.39,3.22,3.22,0,0,1-3.38-3.46,3.44,3.44,0,0,1,3.64-3.6,4.11,4.11,0,0,1,1.71.35l-.28,1a2.86,2.86,0,0,0-1.43-.32,2.56,2.56,0,0,0,0,5.1,3.5,3.5,0,0,0,1.51-.34Z" transform="translate(-0.59 -0.51)"/><path class="cls-4" d="M304.67,602.42v1.95h1.77v.94h-1.77V609c0,.84.24,1.32.92,1.32a2.75,2.75,0,0,0,.71-.08l.06.92a3,3,0,0,1-1.09.17,1.71,1.71,0,0,1-1.33-.52,2.51,2.51,0,0,1-.48-1.76v-3.7h-1.05v-.94h1.05v-1.62Z" transform="translate(-0.59 -0.51)"/><path class="cls-4" d="M313.87,607.7a3.31,3.31,0,0,1-3.38,3.6,3.22,3.22,0,0,1-3.25-3.49,3.31,3.31,0,0,1,3.36-3.6A3.21,3.21,0,0,1,313.87,607.7Zm-5.38.07c0,1.48.85,2.61,2.06,2.61s2.06-1.11,2.06-2.63c0-1.15-.57-2.61-2-2.61S308.49,606.48,308.49,607.77Z" transform="translate(-0.59 -0.51)"/><path class="cls-4" d="M315.42,606.48c0-.8,0-1.48-.06-2.12h1.08l0,1.33h.06a2,2,0,0,1,1.88-1.48,1.32,1.32,0,0,1,.35,0v1.16a1.83,1.83,0,0,0-.42,0A1.73,1.73,0,0,0,316.7,607a3.44,3.44,0,0,0-.06.57v3.61h-1.22Z" transform="translate(-0.59 -0.51)"/><path class="cls-4" d="M319.83,609.88a3.23,3.23,0,0,0,1.63.49c.9,0,1.32-.45,1.32-1s-.35-.91-1.26-1.25c-1.22-.43-1.79-1.11-1.79-1.92a2.09,2.09,0,0,1,2.34-2,3.38,3.38,0,0,1,1.67.42l-.31.9a2.64,2.64,0,0,0-1.39-.39c-.73,0-1.13.42-1.13.92s.41.81,1.29,1.15c1.18.45,1.78,1,1.78,2,0,1.19-.92,2-2.54,2a3.86,3.86,0,0,1-1.9-.46Z" transform="translate(-0.59 -0.51)"/><path class="cls-5" d="M281.47,523.91c0-.49,11.08-1.7,11.08-1.7s6.78-13,9.46-13.59c2-.42,3.82,1.17,4.36,1.11.82-.09,2.6-1.79,4.31-.6s7.27,13.25,7.27,13.25,11.42.85,11.08,1.53-17.73,11.22-23.18,11.56S281.47,524.4,281.47,523.91Zm45.23,28c-2.17-1.47-7.24-2.5-7.24-2.5l9-7.37-9-9-.06.17c-.74,7.66-3.74,20.59-13.75,20.59-10.4,0-12.75-13.08-13.83-20.75h0L283.07,542l9.17,7.4s-5,1-7.17,2.52c-3.07,2.08-8.75,13.73-8.74,17.51a7.49,7.49,0,0,0,7.32,6.79c.86,0,43.93,0,44.81,0a7.25,7.25,0,0,0,7.05-6.86C335.51,565.55,329.77,554,326.71,551.94Z" transform="translate(-0.59 -0.51)"/><path class="cls-7" d="M509.55,334.85c.41-3-1.27-8.05-5.53-7.95-2.8.07-4,1.08-5-.12-1.24-1.53-2.78-2.91-3.39-2.63s-.81,4.72-.81,4.72-6.75,2.15-7.42,5.78c-.35,1.91-7.93,4.48-7.93,4.48s.59,5.91,1.35,6.1a6.88,6.88,0,0,0,1.84.1l-.65,1.4,2.47.06s1.69-3.09,3-2.77a9.09,9.09,0,0,0,5.38-.66s-19.46,13.9-6.3,27.07c.38,2.68.57,4,.57,4s-4.2,1.79-4.58,3.81a6,6,0,0,0,1.14,4.06h-2.75v3.77H509.2v-3.77h-3.09s1.63-2.08,1-4.07c-.72-2.28-4.37-3.74-4.37-3.74l.15-4.56s3.12-.65,4.3-1.65c-2.29-.6-2.86-10.89-2.65-14.89C504.78,349,509.08,338.33,509.55,334.85Z" transform="translate(-0.59 -0.51)"/><path class="cls-8" d="M120.53,121.1a24.75,24.75,0,0,1,1.25,7.8c0,6.47-1.82,12-8.82,15.9v28.3h12v-52Zm20.68,52h-12V137.59h12Zm-32.75.06h-12V152.61h12ZM80.31,146.7a1.63,1.63,0,0,0,0,2.34,1.66,1.66,0,0,0,2.34,0l7.15-7.14a18.76,18.76,0,0,0,4.6,2.79A18,18,0,0,0,114,140.78h0a18.16,18.16,0,0,0,3.9-5.84l0-.09a18.15,18.15,0,0,0,1.33-6.78A18.12,18.12,0,0,0,114,115.31a18,18,0,0,0-12.75-5.26,17.7,17.7,0,0,0-6.88,1.34h0a18.51,18.51,0,0,0-5.83,3.92l-.08.09a18,18,0,0,0-3.83,5.74l0,.11a18.1,18.1,0,0,0,0,13.69,18.41,18.41,0,0,0,2.81,4.62l-7.15,7.14Zm10.59-8.24a14.67,14.67,0,0,1-4.3-10.4,14.82,14.82,0,0,1,1.07-5.56l0-.07a14.48,14.48,0,0,1,3.11-4.71l.08-.08a14.91,14.91,0,0,1,4.77-3.19h0a15,15,0,0,1,5.63-1.1,14.62,14.62,0,0,1,13.59,9.09,14.68,14.68,0,0,1,0,11.16l0,.08a14.69,14.69,0,0,1-3.18,4.79h0a15.25,15.25,0,0,1-4.78,3.18,14.64,14.64,0,0,1-11.27,0,15.3,15.3,0,0,1-4.74-3.16l0,0ZM90.64,127a1,1,0,0,0-1,1,11.39,11.39,0,0,0,.89,4.44l0,.07a11.7,11.7,0,0,0,6.28,6.26,11.79,11.79,0,0,0,4.46.88,1,1,0,0,0,1-1,1,1,0,0,0-1-1,9.28,9.28,0,0,1-3.7-.74,9.45,9.45,0,0,1-3.13-2.09,9.27,9.27,0,0,1-2.09-3.1l0,0a9.43,9.43,0,0,1-.73-3.69,1,1,0,0,0-1-1Z" transform="translate(-0.59 -0.51)"/><path class="cls-9" d="M535.55,122.49H524.18v-2a6.5,6.5,0,0,0-6.54-6.52h-8.4a6.49,6.49,0,0,0-6.55,6.52v2H491.31a7.84,7.84,0,0,0-7.79,7.82v31.15a7.81,7.81,0,0,0,7.79,7.78h44.24a7.82,7.82,0,0,0,7.81-7.78V130.32A7.83,7.83,0,0,0,535.55,122.49Zm-28.34-1.7a3,3,0,0,1,.87-2.1v0a2.93,2.93,0,0,1,2.09-.87h6.56a2.94,2.94,0,0,1,3,2.95v1.57H507.21ZM527.72,150a1.39,1.39,0,0,1-1.36,1.39H519v7.4a1.39,1.39,0,0,1-1.41,1.37h-8.23a1.36,1.36,0,0,1-1.37-1.37v-7.4h-7.42a1.39,1.39,0,0,1-1.37-1.39v-8.27a1.39,1.39,0,0,1,1.37-1.35h7.42V133a1.36,1.36,0,0,1,1.37-1.35h8.23A1.38,1.38,0,0,1,519,133v7.42h7.41a1.38,1.38,0,0,1,1.36,1.35Z" transform="translate(-0.59 -0.51)"/><path class="cls-4" d="M310.67,456.75a30.22,30.22,0,0,1-4.76-8.55,30.2,30.2,0,0,1-4.75,8.55l3.76-1.36v42.48h2V455.39Z" transform="translate(-0.59 -0.51)"/><path class="cls-4" d="M469.13,355.58l-37.52-20.41,3-2.65a30.22,30.22,0,0,1-9.78.09,30.2,30.2,0,0,1,5.24,8.26l.6-3.95,37.52,20.41Z" transform="translate(-0.59 -0.51)"/><path class="cls-4" d="M181.48,332.8l2.69,2.95-44.61,18.5.77,1.85,44.61-18.5.18,4a30.22,30.22,0,0,1,6.07-7.67A30.19,30.19,0,0,1,181.48,332.8Z" transform="translate(-0.59 -0.51)"/><path class="cls-4" d="M469.13,163.5l-1-1.76-37.52,20.41-.6-3.95a30.22,30.22,0,0,1-5.24,8.26,30.19,30.19,0,0,1,9.78.09l-3-2.65Z" transform="translate(-0.59 -0.51)"/><path class="cls-4" d="M185.77,177l-.51,4L150.4,163l-.92,1.78,34.86,18-2.93,2.72a30.22,30.22,0,0,1,9.78-.31A30.2,30.2,0,0,1,185.77,177Z" transform="translate(-0.59 -0.51)"/><polygon class="cls-10" points="267.94 266.5 265.58 274.38 256.31 305.41 259.13 305.56 268.22 275.22 268.86 273.11 270.79 266.66 270.84 266.66 270.85 266.64 267.94 266.5"/></svg>